<svg preserveAspectRatio="none" width="100%" height="100%" overflow="visible" style="display: block;" viewBox="0 0 44 44" fill="none" xmlns="http://www.w3.org/2000/svg">
<g id="award-01">
<path id="Vector" opacity="0.4" fill-rule="evenodd" clip-rule="evenodd" d="M7.19158 7.33336L7.30526 7.33337H9.16663C10.1791 7.33337 11 8.15419 11 9.16671C11 10.1792 10.1791 11 9.16663 11H7.30526C6.34872 11 5.84672 11.0056 5.50588 11.0594C5.51412 11.157 5.53183 11.2905 5.56501 11.4768C5.61079 11.7337 5.6747 12.0316 5.75865 12.4213C6.31735 15.0151 7.52127 17.2536 9.10688 18.8916C9.8111 19.6191 9.79224 20.7797 9.06471 21.4839C8.33721 22.1883 7.17656 22.1694 6.47234 21.4418C4.37875 19.279 2.86735 16.4115 2.17419 13.1934L2.15043 13.0833C2.00726 12.4204 1.85154 11.6993 1.83489 11.0585C1.81386 10.2488 2.00224 9.4297 2.61767 8.68142C3.27083 7.88732 4.10965 7.57169 4.90637 7.44207C5.57771 7.33288 6.38682 7.33312 7.19158 7.33336ZM22 20.1667C23.0125 20.1667 23.8333 20.9875 23.8333 22V33C23.8333 34.0126 23.0125 34.8333 22 34.8333C20.9874 34.8333 20.1667 34.0126 20.1667 33V22C20.1667 20.9875 20.9874 20.1667 22 20.1667ZM36.6947 11C37.6512 11 38.1533 11.0056 38.4941 11.0594C38.4859 11.157 38.4681 11.2905 38.4349 11.4768C38.3893 11.7337 38.3253 12.0316 38.2413 12.4213C37.6827 15.0151 36.4787 17.2536 34.8931 18.8916C34.1889 19.6191 34.2078 20.7797 34.9353 21.4839C35.6627 22.1883 36.8234 22.1694 37.5276 21.4418C39.6213 19.279 41.1327 16.4115 41.8258 13.1934L41.8495 13.0833C41.9927 12.4204 42.1485 11.6993 42.165 11.0585C42.1861 10.2488 41.9976 9.4297 41.3824 8.68142C40.7291 7.88732 39.8904 7.57169 39.0936 7.44207C38.4223 7.33288 37.6132 7.33312 36.8084 7.33336L36.6947 7.33337H34.8333C33.8208 7.33337 33 8.15419 33 9.16671C33 10.1792 33.8208 11 34.8333 11H36.6947Z" fill="var(--fill-0, #1B6BFB)"/>
<path id="Vector_2" d="M21.9983 31.625C18.3467 31.625 15.2349 33.8329 13.6527 36.9737C12.5569 39.1492 14.0917 41.7083 16.4228 41.7083H27.5739C29.905 41.7083 31.4398 39.1492 30.3439 36.9737C28.7617 33.8329 25.6498 31.625 21.9983 31.625Z" fill="var(--fill-0, #1B6BFB)"/>
<path id="Vector_3" d="M15.5899 2.29189C13.1504 2.2892 11.2507 2.28711 9.60962 3.78764C8.8363 4.49475 8.35862 5.216 8.10165 6.09806C7.87957 6.8603 7.84417 7.69568 7.80901 8.52521L7.8047 8.62676C7.79603 8.82925 7.79167 9.03275 7.79167 9.23718C7.79167 17.0526 14.1601 23.3754 22 23.3754C29.8399 23.3754 36.2083 17.0526 36.2083 9.23718C36.2083 9.03275 36.2039 8.82925 36.1953 8.62676L36.1909 8.52522C36.1559 7.6957 36.1205 6.8603 35.8983 6.09806C35.6413 5.216 35.1637 4.49475 34.3904 3.78764C32.7494 2.28711 30.8495 2.2892 28.4101 2.29189H15.5899Z" fill="var(--fill-0, #1B6BFB)"/>
</g>
</svg>
