<svg preserveAspectRatio="none" width="100%" height="100%" overflow="visible" style="display: block;" viewBox="0 0 55 55" fill="none" xmlns="http://www.w3.org/2000/svg">
<g id="brain-02">
<path id="Vector" opacity="0.4" d="M24.9537 2.86458C12.7546 2.86458 2.86458 12.7514 2.86458 24.9485C2.86458 29.0485 3.98374 32.8923 5.93429 36.1854C6.68541 37.4536 7.1717 38.338 7.48827 39.2246C7.79105 40.0728 7.95717 40.9807 7.95717 42.27V42.361C7.95712 43.9471 7.9571 45.2705 8.06944 46.3403C8.18712 47.4606 8.44319 48.4981 9.08864 49.4244C9.51447 50.0356 10.0452 50.5663 10.6563 50.9921C11.5826 51.6374 12.6198 51.8936 13.7401 52.0112C14.8095 52.1235 16.1326 52.1235 17.7182 52.1235H24.4062C25.0543 52.1235 25.3786 52.1235 25.5798 51.9221C25.7813 51.7209 25.7813 51.3968 25.7813 50.7485V45.1557C25.7813 44.2065 26.5508 43.4369 27.5 43.4369C28.4492 43.4369 28.9009 43.7204 29.2188 45.1557L30.0614 47.7175C30.456 48.9179 30.6536 49.5181 30.9623 50.0026C31.5886 50.9861 32.5664 51.6938 33.6964 51.9816C34.2533 52.1235 34.8851 52.1235 36.1485 52.1235C37.389 52.1235 38.4235 52.1235 39.2762 52.0534C40.1706 51.9796 40.9942 51.8212 41.7879 51.4342C42.644 51.0166 43.4033 50.424 44.016 49.6948C44.8777 48.6697 45.402 47.4224 45.763 46.2378C46.1202 45.0652 46.3542 43.8217 46.558 42.7407C46.6728 42.2787 47.118 41.247 47.9783 40.8171L51.1851 39.2141C51.5962 39.0085 51.9079 38.6469 52.0506 38.2101C52.1932 37.7733 52.1549 37.2973 51.9443 36.889L47.8638 28.9749C47.4173 28.1089 47.1616 27.6128 47.0795 27.0609C47.0484 26.851 47.0429 26.3677 47.0429 24.9485C47.0429 12.7514 37.1527 2.86458 24.9537 2.86458Z" fill="var(--fill-0, #1B6BFB)"/>
<path id="Vector_2" fill-rule="evenodd" clip-rule="evenodd" d="M27.2237 13.2446C28.8249 13.5509 30.0567 14.7521 29.9792 16.6001C29.9552 17.1713 30.2166 17.7171 30.677 18.0562C31.1374 18.3952 31.7362 18.4832 32.2746 18.2908C32.4909 18.2136 32.7249 18.1709 32.9724 18.1709C33.7137 18.1709 34.1556 18.4402 34.4367 18.7691C34.7491 19.1345 34.9478 19.6808 34.9478 20.2922C34.9478 20.9036 34.7491 21.4499 34.4367 21.8153C34.1556 22.1442 33.7137 22.4136 32.9724 22.4136C32.4379 22.4136 31.9526 22.2132 31.5799 21.8776C30.8748 21.2422 29.7881 21.2988 29.1526 22.004C28.5171 22.7092 28.5737 23.796 29.2789 24.4315C29.7922 24.8939 30.3936 25.2622 31.0547 25.5076C30.9227 25.9371 30.7302 26.3143 30.4932 26.6166C30.061 27.1677 29.4402 27.5337 28.5222 27.5337C26.5115 27.5337 24.9071 28.4146 23.8465 29.7671C22.8201 31.0757 22.3534 32.7502 22.3534 34.3725C22.3534 35.3217 23.123 36.0912 24.0722 36.0912C25.0214 36.0912 25.791 35.3217 25.791 34.3725C25.791 33.3687 26.0848 32.4832 26.5513 31.8883C26.9835 31.3372 27.6044 30.9712 28.5222 30.9712C30.5331 30.9712 32.1375 30.0903 33.1981 28.7377C33.9074 27.8334 34.3492 26.7547 34.5548 25.6389C35.5642 25.3545 36.4099 24.7972 37.0492 24.0492C37.9682 22.9746 38.3853 21.6009 38.3853 20.2922C38.3853 18.9835 37.9682 17.6098 37.0492 16.5351C36.1449 15.4775 34.8282 14.8008 33.2187 14.7381C32.5418 12.0276 30.2581 10.3254 27.8697 9.86831C25.4555 9.40629 22.6651 10.1669 21.0485 12.4927C18.6063 11.7276 16.101 12.5843 14.4372 14.1357C12.7776 15.6832 11.7614 18.0984 12.3555 20.598C10.4331 21.7165 9.61659 23.8826 9.75517 25.8106C9.93515 28.314 11.7647 30.9712 15.1718 30.9712C17.0496 30.9712 18.7048 30.0302 19.7011 28.606C20.2452 27.8282 20.0557 26.7566 19.2779 26.2123C18.5001 25.6683 17.4284 25.8578 16.8843 26.6356C16.5 27.1851 15.8742 27.5337 15.1718 27.5337C13.9785 27.5337 13.2663 26.7103 13.1838 25.564C13.1009 24.4111 13.6954 23.4887 14.86 23.314C15.4246 23.2295 15.9102 22.87 16.1562 22.3549C16.4022 21.8398 16.3763 21.2361 16.0872 20.7439C15.2275 19.2799 15.6411 17.7131 16.7815 16.6498C17.9367 15.5726 19.534 15.2905 20.8533 16.1809C21.7586 16.792 22.3534 17.8302 22.3534 19.0122C22.3534 19.9614 23.123 20.7309 24.0722 20.7309C25.0214 20.7309 25.791 19.9614 25.791 19.0122C25.791 17.2094 25.0957 15.5679 23.9606 14.346C24.7283 13.3594 25.9683 13.0043 27.2237 13.2446Z" fill="var(--fill-0, #1B6BFB)"/>
</g>
</svg>
