<svg preserveAspectRatio="none" width="100%" height="100%" overflow="visible" style="display: block;" viewBox="0 0 55 55" fill="none" xmlns="http://www.w3.org/2000/svg">
<g id="coins-dollar">
<path id="Vector" d="M6.8411 23.3865C7.45891 22.6321 7.76783 22.2548 8.06797 22.3623C8.36813 22.4698 8.36723 22.9933 8.36542 24.0399C8.3654 24.0532 8.36538 24.0665 8.36538 24.0798C8.36538 36.5366 18.4636 46.6348 30.9204 46.6348C30.9337 46.6348 30.947 46.6348 30.9602 46.6348C32.0069 46.633 32.5303 46.6321 32.6378 46.9323C32.7452 47.2322 32.368 47.5412 31.6136 48.159C28.5783 50.6445 24.6974 52.136 20.4681 52.136C10.7457 52.136 2.86416 44.2544 2.86416 34.5321C2.86416 30.3028 4.35553 26.4218 6.8411 23.3865Z" fill="var(--fill-0, #1B6BFB)"/>
<path id="Vector_2" opacity="0.4" d="M12.0308 22.9172C12.0308 11.8428 21.0084 2.86514 32.0829 2.86514C43.1574 2.86514 52.135 11.8428 52.135 22.9172C52.135 33.9917 43.1574 42.9693 32.0829 42.9693C21.0084 42.9693 12.0308 33.9917 12.0308 22.9172Z" fill="var(--fill-0, #1B6BFB)"/>
<path id="Vector_3" fill-rule="evenodd" clip-rule="evenodd" d="M32.0488 12.0318C32.998 12.0318 33.7675 12.8013 33.7675 13.7506V14.3009C35.8057 14.8611 37.4814 16.3994 37.9035 18.5054C38.0901 19.4362 37.4867 20.3419 36.556 20.5284C35.6251 20.7149 34.7195 20.1116 34.5329 19.1809C34.3737 18.3857 33.4659 17.5068 32.0488 17.5068C30.4341 17.5068 29.5344 18.6036 29.5344 19.4848C29.5344 20.1735 29.7138 20.383 29.8492 20.491C30.0729 20.6694 30.6596 20.9348 32.0488 20.9348C33.7208 20.9348 35.3419 21.2091 36.5624 22.1512C37.8822 23.17 38.3852 24.6841 38.3852 26.3503C38.3852 28.1871 37.6308 29.6508 36.3099 30.5899C35.5523 31.1285 34.6739 31.4491 33.7675 31.6164V32.0839C33.7675 33.0331 32.998 33.8026 32.0488 33.8026C31.0993 33.8026 30.33 33.0331 30.33 32.0839V31.5618C28.1614 31.0398 26.2976 29.542 25.8207 27.358C25.6184 26.4306 26.2059 25.5146 27.1334 25.3122C28.0606 25.1096 28.9766 25.6972 29.1791 26.6247C29.3375 27.3502 30.3286 28.3285 32.0488 28.3285C33.1259 28.3285 33.8805 28.0993 34.3182 27.7884C34.6686 27.539 34.9477 27.1543 34.9477 26.3503C34.9477 25.3762 34.6814 25.0418 34.4619 24.8722C34.1429 24.6261 33.4552 24.3724 32.0488 24.3724C30.3591 24.3724 28.8292 24.0743 27.7061 23.1787C26.4947 22.2127 26.0969 20.8379 26.0969 19.4848C26.0969 16.8951 27.9875 14.9521 30.33 14.3036V13.7506C30.33 12.8013 31.0993 12.0318 32.0488 12.0318Z" fill="var(--fill-0, #1B6BFB)"/>
</g>
</svg>
