<svg preserveAspectRatio="none" width="100%" height="100%" overflow="visible" style="display: block;" viewBox="0 0 55 55" fill="none" xmlns="http://www.w3.org/2000/svg">
<g id="logout-01">
<path id="Vector" d="M43.1814 18.7798C42.1623 18.03 40.727 18.2488 39.9765 19.2677C39.2267 20.2867 39.4478 21.7221 40.4667 22.4724L40.7376 22.6761C40.9172 22.8118 41.1762 23.0085 41.4872 23.2512C42.1126 23.7393 43.0446 24.4981 43.8639 25.2094H20.0521C18.7864 25.2094 17.7604 26.2354 17.7604 27.5011C17.7604 28.7668 18.7864 29.7927 20.0521 29.7927H43.8639C43.0446 30.5041 42.1126 31.2629 41.4872 31.751C41.1762 31.9937 40.9172 32.1905 40.7376 32.3262L40.4644 32.5297C39.4455 33.2802 39.2267 34.7155 39.9765 35.7346C40.727 36.7535 42.1623 36.9723 43.1814 36.2225C43.3776 36.0742 43.9741 35.623 44.3071 35.3631C44.9705 34.8452 45.8629 34.1295 46.7621 33.349C47.6497 32.578 48.5973 31.6987 49.3403 30.8581C49.7095 30.4401 50.0777 29.9765 50.3651 29.4996C50.6147 29.0855 50.9896 28.3655 50.9896 27.5011C50.9896 26.6367 50.6147 25.9166 50.3651 25.5025C50.0777 25.0256 49.7095 24.562 49.3403 24.1442C48.5973 23.3034 47.6497 22.4241 46.7621 21.6533C45.8629 20.8727 44.9705 20.157 44.3071 19.6392C43.9741 19.3793 43.3776 18.928 43.1814 18.7798Z" fill="var(--fill-0, #1B6BFB)"/>
<path id="Vector_2" opacity="0.4" d="M7.2644 6.7001C9.05525 5.29242 11.1969 5.01213 13.6605 5.21634C16.0564 5.41498 19.0795 6.10583 22.8629 6.96866L22.9772 6.99328L25.2709 7.51697L25.4031 7.54829C27.8607 8.1087 29.8561 8.56247 31.4142 9.11935C33.0424 9.70129 34.3826 10.4552 35.4044 11.7243C36.8312 13.4968 37.1438 15.6691 37.2396 18.3643V22.3457H20.0789C17.2312 22.3457 14.9227 24.6541 14.9227 27.502C14.9232 30.3491 17.2316 32.6582 20.0789 32.6582H37.2396V36.635C37.144 39.3302 36.831 41.5025 35.4044 43.2751C34.3826 44.5442 33.0424 45.2979 31.4142 45.88C29.8561 46.4369 27.8609 46.8929 25.4031 47.4532L25.2709 47.4823L22.9772 48.006L22.8629 48.033C19.0795 48.8958 16.0564 49.5842 13.6605 49.7829C11.1967 49.9871 9.05529 49.7071 7.2644 48.2993C5.46996 46.8879 4.70697 44.8797 4.35282 42.4514C4.01037 40.1025 4.01035 37.044 4.01042 33.2266V21.7727C4.01035 17.9551 4.0103 14.8968 4.35282 12.5479C4.70702 10.1197 5.46991 8.11129 7.2644 6.7001Z" fill="var(--fill-0, #1B6BFB)"/>
</g>
</svg>
