<svg preserveAspectRatio="none" width="100%" height="100%" overflow="visible" style="display: block;" viewBox="0 0 48 48" fill="none" xmlns="http://www.w3.org/2000/svg">
<g id="IconSubscriptionTick2">
<path id="Vector" fill-rule="evenodd" clip-rule="evenodd" d="M18.3422 6.32753C21.4664 3.20333 26.5318 3.20333 29.656 6.32753L29.865 6.53661C30.5774 7.24893 31.5434 7.64911 32.5508 7.64911C36.8576 7.64911 40.349 11.1405 40.349 15.4474C40.349 16.4547 40.7492 17.4208 41.4616 18.1332L41.6706 18.3422C44.7948 21.4664 44.7948 26.5318 41.6706 29.656L41.4616 29.865C40.7492 30.5774 40.349 31.5434 40.349 32.5508C40.349 36.8576 36.8576 40.349 32.5508 40.349C31.5434 40.349 30.5774 40.7492 29.865 41.4616L29.656 41.6706C26.5318 44.7948 21.4664 44.7948 18.3422 41.6706L18.1332 41.4616C17.4208 40.7492 16.4547 40.349 15.4474 40.349C11.1405 40.349 7.64911 36.8576 7.64911 32.5508C7.64911 31.5434 7.24893 30.5774 6.53661 29.865L6.32753 29.656C3.20333 26.5318 3.20333 21.4664 6.32753 18.3422L6.53661 18.1332C7.24893 17.4208 7.64911 16.4547 7.64911 15.4474C7.64911 11.1405 11.1405 7.64911 15.4474 7.64911C16.4547 7.64911 17.4208 7.24893 18.1332 6.53661L18.3422 6.32753ZM30.6374 20.646C31.271 19.7412 31.0508 18.4941 30.146 17.8607C29.241 17.2272 27.994 17.4473 27.3606 18.3522L21.6386 26.5262L19.316 24.494C18.4848 23.7666 17.2212 23.8508 16.4939 24.6822C15.7665 25.5134 15.8507 26.777 16.682 27.5042L20.682 31.0042C21.1094 31.3784 21.6758 31.553 22.2396 31.4846C22.8036 31.4162 23.3118 31.1114 23.6374 30.646L30.6374 20.646Z" fill="var(--fill-0, white)"/>
</g>
</svg>
