<svg viewBox="0 0 50.9895 30" fill="none" xmlns="http://www.w3.org/2000/svg">
<g id="Vector 11" filter="url(#filter0_i_0_41)">
<path d="M1.37537 5.13297L0 0H16.538V5.13297H11.8373V26.1656L5.70277 24.5219V5.13297H1.37537Z" fill="var(--fill-0, white)"/>
<path d="M1.37537 5.13297L0 0H16.538V5.13297H11.8373V26.1656L5.70277 24.5219V5.13297H1.37537Z" fill="url(#paint0_linear_0_41)"/>
<path d="M18.6179 28.3461V0H32.3716L30.9962 5.13297H24.7903V10.3656H30.6786L29.2854 15.5652H24.7903V30L18.6179 28.3461Z" fill="var(--fill-0, white)"/>
<path d="M18.6179 28.3461V0H32.3716L30.9962 5.13297H24.7903V10.3656H30.6786L29.2854 15.5652H24.7903V30L18.6179 28.3461Z" fill="url(#paint1_linear_0_41)"/>
<path d="M33.5457 5.13297V0H50.9895L49.6141 5.13297H44.7164V24.5117L38.544 26.1656V5.13297H33.5457Z" fill="var(--fill-0, white)"/>
<path d="M33.5457 5.13297V0H50.9895L49.6141 5.13297H44.7164V24.5117L38.544 26.1656V5.13297H33.5457Z" fill="url(#paint2_linear_0_41)"/>
</g>
<defs>
<filter id="filter0_i_0_41" x="0" y="-0.447276" width="50.9895" height="30.4473" filterUnits="userSpaceOnUse" color-interpolation-filters="sRGB">
<feFlood flood-opacity="0" result="BackgroundImageFix"/>
<feBlend mode="normal" in="SourceGraphic" in2="BackgroundImageFix" result="shape"/>
<feColorMatrix in="SourceAlpha" type="matrix" values="0 0 0 0 0 0 0 0 0 0 0 0 0 0 0 0 0 0 127 0" result="hardAlpha"/>
<feOffset dy="-0.447276"/>
<feGaussianBlur stdDeviation="0.447276"/>
<feComposite in2="hardAlpha" operator="arithmetic" k2="-1" k3="1"/>
<feColorMatrix type="matrix" values="0 0 0 0 0 0 0 0 0 0 0 0 0 0 0 0 0 0 0.05 0"/>
<feBlend mode="normal" in2="shape" result="effect1_innerShadow_0_41"/>
</filter>
<linearGradient id="paint0_linear_0_41" x1="25.4947" y1="30" x2="25.4947" y2="0" gradientUnits="userSpaceOnUse">
<stop stop-color="#104095"/>
<stop offset="1" stop-color="#1B6BFB"/>
</linearGradient>
<linearGradient id="paint1_linear_0_41" x1="25.4947" y1="30" x2="25.4947" y2="0" gradientUnits="userSpaceOnUse">
<stop stop-color="#104095"/>
<stop offset="1" stop-color="#1B6BFB"/>
</linearGradient>
<linearGradient id="paint2_linear_0_41" x1="25.4947" y1="30" x2="25.4947" y2="0" gradientUnits="userSpaceOnUse">
<stop stop-color="#104095"/>
<stop offset="1" stop-color="#1B6BFB"/>
</linearGradient>
</defs>
</svg>
