<svg viewBox="0 0 98.5796 58" fill="none" xmlns="http://www.w3.org/2000/svg">
<g id="Vector 11" filter="url(#filter0_i_0_31)">
<path d="M2.65905 9.92373L0 0H31.9735V9.92373H22.8854V50.5869L11.0254 47.409V9.92373H2.65905Z" fill="var(--fill-0, white)"/>
<path d="M2.65905 9.92373L0 0H31.9735V9.92373H22.8854V50.5869L11.0254 47.409V9.92373H2.65905Z" fill="url(#paint0_linear_0_31)"/>
<path d="M35.9945 54.8025V0H62.5851L59.926 9.92373H47.9278V20.0402H59.312L56.6184 30.0927H47.9278V58L35.9945 54.8025Z" fill="var(--fill-0, white)"/>
<path d="M35.9945 54.8025V0H62.5851L59.926 9.92373H47.9278V20.0402H59.312L56.6184 30.0927H47.9278V58L35.9945 54.8025Z" fill="url(#paint1_linear_0_31)"/>
<path d="M64.855 9.92373V0H98.5796L95.9205 9.92373H86.4517V47.3894L74.5184 50.5869V9.92373H64.855Z" fill="var(--fill-0, white)"/>
<path d="M64.855 9.92373V0H98.5796L95.9205 9.92373H86.4517V47.3894L74.5184 50.5869V9.92373H64.855Z" fill="url(#paint2_linear_0_31)"/>
</g>
<defs>
<filter id="filter0_i_0_31" x="0" y="-0.864733" width="98.5796" height="58.8647" filterUnits="userSpaceOnUse" color-interpolation-filters="sRGB">
<feFlood flood-opacity="0" result="BackgroundImageFix"/>
<feBlend mode="normal" in="SourceGraphic" in2="BackgroundImageFix" result="shape"/>
<feColorMatrix in="SourceAlpha" type="matrix" values="0 0 0 0 0 0 0 0 0 0 0 0 0 0 0 0 0 0 127 0" result="hardAlpha"/>
<feOffset dy="-0.864733"/>
<feGaussianBlur stdDeviation="0.864733"/>
<feComposite in2="hardAlpha" operator="arithmetic" k2="-1" k3="1"/>
<feColorMatrix type="matrix" values="0 0 0 0 0 0 0 0 0 0 0 0 0 0 0 0 0 0 0.05 0"/>
<feBlend mode="normal" in2="shape" result="effect1_innerShadow_0_31"/>
</filter>
<linearGradient id="paint0_linear_0_31" x1="49.2898" y1="58" x2="49.2898" y2="0" gradientUnits="userSpaceOnUse">
<stop stop-color="#104095"/>
<stop offset="1" stop-color="#1B6BFB"/>
</linearGradient>
<linearGradient id="paint1_linear_0_31" x1="49.2898" y1="58" x2="49.2898" y2="0" gradientUnits="userSpaceOnUse">
<stop stop-color="#104095"/>
<stop offset="1" stop-color="#1B6BFB"/>
</linearGradient>
<linearGradient id="paint2_linear_0_31" x1="49.2898" y1="58" x2="49.2898" y2="0" gradientUnits="userSpaceOnUse">
<stop stop-color="#104095"/>
<stop offset="1" stop-color="#1B6BFB"/>
</linearGradient>
</defs>
</svg>
