<svg preserveAspectRatio="none" width="100%" height="100%" overflow="visible" style="display: block;" viewBox="0 0 55 55" fill="none" xmlns="http://www.w3.org/2000/svg">
<g id="waterfall-up-01">
<path id="Vector" opacity="0.4" fill-rule="evenodd" clip-rule="evenodd" d="M18.3333 41.25C17.0677 41.25 16.0417 40.224 16.0417 38.9583V32.0833C16.0417 30.8176 17.0677 29.7917 18.3333 29.7917C19.599 29.7917 20.625 30.8176 20.625 32.0833V38.9583C20.625 40.224 19.599 41.25 18.3333 41.25Z" fill="var(--fill-0, #1B6BFB)"/>
<path id="Vector_2" fill-rule="evenodd" clip-rule="evenodd" d="M27.5 34.375C26.2343 34.375 25.2083 33.349 25.2083 32.0833V20.625C25.2083 19.3594 26.2343 18.3333 27.5 18.3333C28.7657 18.3333 29.7917 19.3594 29.7917 20.625V32.0833C29.7917 33.349 28.7657 34.375 27.5 34.375Z" fill="var(--fill-0, #1B6BFB)"/>
<path id="Vector_3" opacity="0.4" fill-rule="evenodd" clip-rule="evenodd" d="M36.6667 22.9167C35.401 22.9167 34.375 21.8906 34.375 20.625V13.75C34.375 12.4843 35.401 11.4583 36.6667 11.4583C37.9324 11.4583 38.9583 12.4843 38.9583 13.75V20.625C38.9583 21.8906 37.9324 22.9167 36.6667 22.9167Z" fill="var(--fill-0, #1B6BFB)"/>
<path id="Vector_4" fill-rule="evenodd" clip-rule="evenodd" d="M45.8333 25.2083C44.5676 25.2083 43.5417 24.1824 43.5417 22.9167V9.16667C43.5417 7.901 44.5676 6.875 45.8333 6.875C47.099 6.875 48.125 7.901 48.125 9.16667V22.9167C48.125 24.1824 47.099 25.2083 45.8333 25.2083Z" fill="var(--fill-0, #1B6BFB)"/>
<path id="Vector_5" fill-rule="evenodd" clip-rule="evenodd" d="M6.875 4.58333C8.14067 4.58333 9.16667 5.60936 9.16667 6.875V32.0833C9.16667 35.9292 9.17155 38.583 9.4399 40.579C9.69939 42.509 10.1668 43.4775 10.8447 44.1554C11.5226 44.8332 12.4909 45.3005 14.421 45.5602C16.417 45.8285 19.0708 45.8333 22.9167 45.8333H48.125C49.3907 45.8333 50.4167 46.8593 50.4167 48.125C50.4167 49.3907 49.3907 50.4167 48.125 50.4167H22.7517C19.111 50.4167 16.1475 50.4169 13.8103 50.1025C11.372 49.7748 9.27518 49.0676 7.6038 47.3962C5.93242 45.7247 5.22525 43.6281 4.89743 41.1897C4.5832 38.8525 4.58327 35.8891 4.58334 32.2483V6.875C4.58334 5.60936 5.60936 4.58333 6.875 4.58333Z" fill="var(--fill-0, #1B6BFB)"/>
</g>
</svg>
