<svg preserveAspectRatio="none" width="100%" height="100%" overflow="visible" style="display: block;" viewBox="0 0 36 36" fill="none" xmlns="http://www.w3.org/2000/svg">
<g id="multiplication-sign">
<path id="Vector" fill-rule="evenodd" clip-rule="evenodd" d="M7.67418 7.67418C8.4064 6.94194 9.5936 6.94194 10.3258 7.67418L18 15.3483L25.6741 7.67418C26.4064 6.94194 27.5935 6.94194 28.3258 7.67418C29.058 8.4064 29.058 9.5936 28.3258 10.3258L20.6517 18L28.3258 25.6741C29.058 26.4064 29.058 27.5935 28.3258 28.3258C27.5935 29.058 26.4064 29.058 25.6741 28.3258L18 20.6517L10.3258 28.3258C9.5936 29.058 8.4064 29.058 7.67418 28.3258C6.94194 27.5935 6.94194 26.4064 7.67418 25.6741L15.3483 18L7.67418 10.3258C6.94194 9.5936 6.94194 8.4064 7.67418 7.67418Z" fill="var(--fill-0, #FF1E1E)"/>
</g>
</svg>
