<svg preserveAspectRatio="none" width="100%" height="100%" overflow="visible" style="display: block;" viewBox="0 0 12 12" fill="none" xmlns="http://www.w3.org/2000/svg">
<g id="party">
<path id="Vector" fill-rule="evenodd" clip-rule="evenodd" d="M6.90565 0.678305C7.08335 0.571925 7.31365 0.629745 7.42005 0.807445C7.70895 1.29013 7.8474 2.36297 6.74005 3.28787C6.5811 3.42064 6.3446 3.39941 6.21185 3.24045C6.07905 3.0815 6.1003 2.84501 6.25925 2.71225C7.0675 2.03715 6.88665 1.37666 6.7765 1.19267C6.67015 1.01497 6.72795 0.78468 6.90565 0.678305ZM9.7648 2.76517C9.91125 2.61872 9.91125 2.38128 9.7648 2.23484C9.61835 2.08839 9.3809 2.08839 9.23445 2.23484L7.73445 3.73484C7.588 3.88128 7.588 4.11872 7.73445 4.26517C7.8809 4.41161 8.11835 4.41161 8.2648 4.26517L9.7648 2.76517ZM7.41405 5.5498C7.88225 6.01795 8.2635 6.3992 8.511 6.73235C8.76715 7.07715 8.93435 7.44115 8.8563 7.8616C8.7782 8.2821 8.49145 8.5618 8.1286 8.79165C7.9796 8.88605 7.80495 8.9799 7.6069 9.0772L2.92347 4.39354C3.02077 4.19555 3.11457 4.02094 3.20893 3.87198C3.43879 3.50914 3.71852 3.22239 4.13898 3.14432C4.55944 3.06625 4.92345 3.23347 5.26825 3.48961C5.6014 3.73711 5.98265 4.11838 6.45085 4.58658L7.41405 5.5498ZM2.58846 5.1192L6.88125 9.4122C6.8157 9.44145 6.7487 9.4712 6.68025 9.50165L5.19255 10.1629L1.83783 6.8079L2.49897 5.32035C2.52941 5.25185 2.55921 5.18475 2.58846 5.1192ZM1.5118 7.54255L4.45789 10.4888C3.67768 10.8332 3.04238 11.102 2.53797 11.2473C1.94197 11.4191 1.35723 11.4709 0.943453 11.0571C0.529678 10.6433 0.581444 10.0586 0.753224 9.4626C0.898614 8.9582 1.16737 8.32285 1.5118 7.54255ZM11.1922 4.57945C10.7096 4.2905 9.63675 4.15208 8.71185 5.25945C8.57905 5.4184 8.6003 5.65485 8.75925 5.78765C8.9182 5.9204 9.1547 5.89915 9.28745 5.7402C9.96255 4.93196 10.623 5.1128 10.807 5.22295C10.9847 5.32935 11.215 5.2715 11.3214 5.0938C11.4277 4.91611 11.3699 4.68582 11.1922 4.57945ZM8.99965 0.625C9.20675 0.625 9.37465 0.792895 9.37465 1V1.01C9.37465 1.21711 9.20675 1.385 8.99965 1.385C8.79255 1.385 8.62465 1.21711 8.62465 1.01V1C8.62465 0.792895 8.79255 0.625 8.99965 0.625ZM11.3746 3C11.3746 2.7929 11.2067 2.625 10.9996 2.625C10.7925 2.625 10.6246 2.7929 10.6246 3V3.01C10.6246 3.21711 10.7925 3.385 10.9996 3.385C11.2067 3.385 11.3746 3.21711 11.3746 3.01V3ZM10.4996 6.125C10.7067 6.125 10.8746 6.2929 10.8746 6.5V6.51C10.8746 6.7171 10.7067 6.885 10.4996 6.885C10.2925 6.885 10.1246 6.7171 10.1246 6.51V6.5C10.1246 6.2929 10.2925 6.125 10.4996 6.125ZM5.87465 1.5C5.87465 1.2929 5.70675 1.125 5.49965 1.125C5.29255 1.125 5.12465 1.2929 5.12465 1.5V1.51C5.12465 1.71711 5.29255 1.885 5.49965 1.885C5.70675 1.885 5.87465 1.71711 5.87465 1.51V1.5Z" fill="var(--fill-0, #1B1B1D)"/>
</g>
</svg>
