<svg width="1107" height="161" viewBox="0 0 1107 161" fill="none" xmlns="http://www.w3.org/2000/svg">
<path d="M90.2186 34.915C90.0102 48.8245 89.906 56.4305 89.906 57.7329L89.5934 57.8892C75.6839 58.0976 68.0779 58.2018 66.7755 58.2018V129H43.0198V58.3581H42.8635C28.6413 58.1497 20.9312 58.0455 19.7329 58.0455L19.5767 57.7329V35.0712C40.415 34.9671 63.9623 34.915 90.2186 34.915ZM110.32 34.915H114.539C130.533 34.915 143.244 38.0928 152.674 44.4485C159.654 49.9706 163.145 56.691 163.145 64.6096V67.2665C163.145 78.3108 157.05 87.6359 144.859 95.2419C143.817 95.7629 143.244 96.0233 143.14 96.0233V96.1796L164.395 116.81C153.976 125.145 147.672 129.99 145.484 131.344C143.453 129.729 134.232 120.717 117.821 104.307L117.04 104.463H116.259V104.619C116.102 121.029 115.946 129.26 115.79 129.313C101.984 129.208 94.1699 129.156 92.3466 129.156L93.128 36.1653C98.4939 35.3317 104.224 34.915 110.32 34.915ZM116.415 58.6706V80.3946H116.571C119.749 80.082 124.802 78.415 131.731 75.3934C137.045 72.4239 139.702 69.3503 139.702 66.1724V65.2347C139.702 62.8383 136.107 60.9629 128.918 59.6084C124.906 58.9832 121.103 58.6706 117.509 58.6706H116.415ZM196.53 34.7587H213.566C233.362 93.9916 243.26 123.738 243.26 123.999C229.82 128.792 222.422 131.344 221.067 131.657C221.067 131.449 219.348 126.343 215.91 116.341H189.497C189.185 116.497 187.205 121.29 183.558 130.719C182.985 132.178 182.621 132.907 182.464 132.907L160.584 123.217V123.061C184.132 65.3389 196.114 35.9048 196.53 34.7587ZM203.563 80.8635C202.834 82.8952 201.219 86.9066 198.718 92.8976H207.939C206.064 87.688 204.709 83.6766 203.876 80.8635H203.563ZM246.326 33.8209H248.045C270.707 33.8209 288.471 39.1347 301.339 49.7623C311.029 58.6186 315.874 69.4545 315.874 82.2701V85.7084C315.874 91.8036 314.519 97.7425 311.81 103.525C307.278 112.381 299.776 118.893 289.305 123.061C279.146 127.02 268.623 129 257.735 129H250.389C249.295 129 247.628 128.948 245.388 128.844L246.013 33.9772L246.326 33.8209ZM269.3 104.15C272.791 104.15 277.531 102.744 283.522 99.9305C289.566 95.9713 292.587 91.2305 292.587 85.7084V83.8329C292.587 75.1329 287.951 68.3605 278.677 63.5156C274.093 61.4317 270.967 60.3898 269.3 60.3898V104.15ZM320.19 34.4461C326.91 34.4461 334.777 34.6024 343.789 34.915L341.914 129H341.758C334.985 129 327.067 128.844 318.002 128.531L320.034 34.4461H320.19ZM395.929 33.8209C407.338 34.4461 415.101 34.9671 419.216 35.3838C417.862 66.2245 416.351 97.4299 414.684 129C403.9 128.896 397.805 128.844 396.398 128.844C379.415 101.858 370.819 88.2611 370.611 88.0527V88.209L369.36 128.062L369.048 128.219H345.917V128.062C347.584 72.6323 348.574 42.2084 348.887 36.7904C350.346 36.7904 356.284 36.8425 366.704 36.9467C384.156 65.0263 393.168 79.4569 393.741 80.2383V80.082C394.887 53.409 395.617 37.9886 395.929 33.8209ZM457.447 34.7587C468.803 34.7587 479.796 40.2287 490.423 51.1689V51.4814L473.232 66.7976C469.377 63.1509 465.782 60.7545 462.448 59.6084C460.781 58.9832 459.478 58.6706 458.541 58.6706C453.487 58.6706 449.32 64.2449 446.038 75.3934C445.517 77.7898 445.152 80.6551 444.944 83.9892C444.944 91.4389 447.08 97.482 451.351 102.119C453.8 104.307 456.509 105.401 459.478 105.401H459.791C464.167 105.401 467.084 102.431 468.543 96.4922L451.977 97.5862V97.4299L451.195 74.4557H451.351L493.236 72.4239V72.5802C493.341 74.9245 493.393 76.8 493.393 78.2066V88.5216C493.393 101.91 488.444 113.163 478.545 122.28C472.919 126.76 467.709 129 462.917 129H456.978C452.081 129 446.298 127.02 439.63 123.061C427.439 114.101 421.344 101.181 421.344 84.3018C421.344 71.0174 425.199 58.9832 432.909 48.1994C440.203 39.2389 448.382 34.7587 457.447 34.7587Z" fill="white"/>
<path d="M511.141 29.4073H511.194C514.086 29.4073 521.838 29.496 534.452 29.6734L534.239 37.8695L519.018 37.5502V37.6034C519.018 37.9405 518.982 39.5549 518.911 42.4466H531.525V42.4998C531.436 47.8575 531.365 50.5363 531.312 50.5363C530.159 50.5363 525.937 50.5186 518.645 50.4831L518.273 61.5H510.343V61.4468L511.141 29.4073ZM522.743 64.5669H523.063C526.788 64.5669 529.786 65.9507 532.057 68.7182C532.66 69.6585 533.157 70.7229 533.547 71.9115C534.328 74.6081 534.718 77.0563 534.718 79.2561V81.1189C534.718 84.8622 533.778 88.4103 531.897 91.7633C530.549 93.4664 529.094 94.6372 527.533 95.2759C525.706 96.092 523.914 96.5 522.158 96.5H521.359C518.361 96.5 515.807 95.4533 513.696 93.3599C512.4 91.9939 511.407 89.7586 510.715 86.654C510.467 85.0396 510.343 83.709 510.343 82.6623V81.2253C510.343 77.1982 511.354 73.313 513.376 69.5698C515.558 66.2345 518.681 64.5669 522.743 64.5669ZM518.166 82.2898V83.0349C518.166 85.3412 518.823 87.0088 520.135 88.0377C520.774 88.4635 521.484 88.6764 522.264 88.6764C524.482 88.6764 525.937 86.6894 526.628 82.7156C526.77 81.5979 526.841 80.5157 526.841 79.469C526.841 75.8322 526.185 73.6678 524.872 72.976C524.34 72.6921 523.843 72.5502 523.382 72.5502H522.796C520.792 72.5502 519.408 74.3065 518.645 77.8191C518.326 79.54 518.166 81.0302 518.166 82.2898ZM516.463 99.4605H517.9C523.346 99.4605 527.675 100.543 530.886 102.707C533.263 104.588 534.452 106.876 534.452 109.573V110.477C534.452 114.238 532.376 117.414 528.225 120.004C527.87 120.181 527.675 120.27 527.64 120.27V120.323L534.878 127.349C531.33 130.187 529.183 131.837 528.438 132.298C527.746 131.748 524.606 128.679 519.018 123.091L518.752 123.144H518.485V123.197C518.432 128.786 518.379 131.589 518.326 131.606C513.625 131.571 510.963 131.553 510.343 131.553L510.609 99.8863C512.436 99.6024 514.387 99.4605 516.463 99.4605ZM518.539 107.55V114.948H518.592C519.674 114.842 521.395 114.274 523.754 113.245C525.564 112.234 526.469 111.187 526.469 110.105V109.786C526.469 108.969 525.245 108.331 522.796 107.87C521.43 107.657 520.135 107.55 518.911 107.55H518.539Z" fill="white"/>
<path d="M617.642 34.915C617.434 48.8245 617.329 56.4305 617.329 57.7329L617.017 57.8892C603.107 58.0976 595.501 58.2018 594.199 58.2018V129H570.443V58.3581H570.287C556.065 58.1497 548.354 58.0455 547.156 58.0455L547 57.7329V35.0712C567.838 34.9671 591.386 34.915 617.642 34.915ZM651.027 35.2275H651.965C662.905 35.2275 671.709 39.291 678.378 47.418C680.149 50.179 681.608 53.3048 682.754 56.7952C685.046 64.7138 686.192 71.903 686.192 78.3629V83.8329C686.192 94.8251 683.431 105.244 677.909 115.09C673.95 120.092 669.678 123.53 665.093 125.405C659.727 127.802 654.466 129 649.308 129H646.964C638.16 129 630.658 125.926 624.459 119.779C620.656 115.768 617.738 109.204 615.706 100.087C614.977 95.3461 614.612 91.4389 614.612 88.3653V84.1455C614.612 72.3198 617.582 60.9108 623.521 49.9186C629.929 40.1245 639.097 35.2275 651.027 35.2275ZM637.587 87.2713V89.4593C637.587 96.2317 639.514 101.129 643.369 104.15C645.245 105.401 647.329 106.026 649.621 106.026C656.133 106.026 660.405 100.191 662.436 88.5216C662.853 85.2395 663.062 82.0617 663.062 78.988C663.062 68.3084 661.134 61.9527 657.279 59.9209C655.716 59.0874 654.257 58.6706 652.903 58.6706H651.184C645.297 58.6706 641.233 63.8281 638.993 74.1431C638.056 79.1964 637.587 83.5724 637.587 87.2713ZM689.258 33.8209H690.977C713.639 33.8209 731.403 39.1347 744.271 49.7623C753.961 58.6186 758.806 69.4545 758.806 82.2701V85.7084C758.806 91.8036 757.451 97.7425 754.742 103.525C750.21 112.381 742.708 118.893 732.237 123.061C722.078 127.02 711.555 129 700.667 129H693.321C692.227 129 690.56 128.948 688.32 128.844L688.945 33.9772L689.258 33.8209ZM712.232 104.15C715.723 104.15 720.463 102.744 726.454 99.9305C732.497 95.9713 735.519 91.2305 735.519 85.7084V83.8329C735.519 75.1329 730.882 68.3605 721.609 63.5156C717.025 61.4317 713.899 60.3898 712.232 60.3898V104.15ZM761.871 33.8209H763.591C786.252 33.8209 804.017 39.1347 816.885 49.7623C826.574 58.6186 831.419 69.4545 831.419 82.2701V85.7084C831.419 91.8036 830.065 97.7425 827.356 103.525C822.824 112.381 815.322 118.893 804.851 123.061C794.692 127.02 784.168 129 773.28 129H765.935C764.841 129 763.174 128.948 760.934 128.844L761.559 33.9772L761.871 33.8209ZM784.846 104.15C788.336 104.15 793.077 102.744 799.068 99.9305C805.111 95.9713 808.133 91.2305 808.133 85.7084V83.8329C808.133 75.1329 803.496 68.3605 794.223 63.5156C789.639 61.4317 786.513 60.3898 784.846 60.3898V104.15ZM836.517 34.7587C843.237 34.7587 851.104 34.915 860.116 35.2275L857.928 105.713L896.688 104.932V128.375C896.688 128.583 896.531 128.687 896.219 128.687C873.244 128.896 852.354 129 833.547 129C835.214 72.2156 836.204 40.8018 836.517 34.7587ZM900.378 34.7587H959.768V58.5144H959.611C937.731 58.306 925.645 58.2018 923.353 58.2018V58.3581C923.248 65.391 923.196 69.4024 923.196 70.3922H923.353C943.097 70.5485 952.995 70.7048 953.047 70.8611C953.047 81.3323 952.943 89.2509 952.735 94.6168C944.451 94.5126 934.553 94.4605 923.04 94.4605C923.04 95.4503 922.988 99.0449 922.884 105.244H961.174C961.383 105.296 961.487 105.401 961.487 105.557C961.591 118.477 961.643 126.291 961.643 129H961.487C960.445 129 958.882 128.948 956.798 128.844C918.143 128.74 898.816 128.635 898.816 128.531L900.066 34.915L900.378 34.7587ZM981.744 34.915H985.964C1001.96 34.915 1014.67 38.0928 1024.1 44.4485C1031.08 49.9706 1034.57 56.691 1034.57 64.6096V67.2665C1034.57 78.3108 1028.47 87.6359 1016.28 95.2419C1015.24 95.7629 1014.67 96.0233 1014.56 96.0233V96.1796L1035.82 116.81C1025.4 125.145 1019.1 129.99 1016.91 131.344C1014.88 129.729 1005.66 120.717 989.246 104.307L988.465 104.463H987.683V104.619C987.527 121.029 987.371 129.26 987.214 129.313C973.409 129.208 965.594 129.156 963.771 129.156L964.553 36.1653C969.918 35.3317 975.649 34.915 981.744 34.915ZM987.839 58.6706V80.3946H987.996C991.174 80.082 996.227 78.415 1003.16 75.3934C1008.47 72.4239 1011.13 69.3503 1011.13 66.1724V65.2347C1011.13 62.8383 1007.53 60.9629 1000.34 59.6084C996.331 58.9832 992.528 58.6706 988.933 58.6706H987.839ZM1069.21 34.4461C1078.17 34.4461 1090.04 38.197 1104.84 45.6988C1104.84 46.2718 1102.13 53.6695 1096.71 67.8916C1083.22 61.6401 1075.04 58.5144 1072.17 58.5144C1071.65 58.306 1070.25 58.1497 1067.95 58.0455C1064.93 58.0455 1063.21 58.9311 1062.8 60.7024V60.8587C1062.8 62.9425 1067.8 66.3808 1077.8 71.1736C1088.06 76.3311 1094.68 80.5509 1097.65 83.8329C1100.67 86.7503 1102.75 89.5114 1103.9 92.1162C1105.36 95.6587 1106.09 98.576 1106.09 100.868V105.244C1106.09 111.444 1103.12 117.07 1097.18 122.123C1090.1 126.708 1082.91 129 1075.61 129H1069.52C1062.12 129 1052.01 126.343 1039.2 121.029C1039.2 120.873 1038.78 120.665 1037.95 120.404V120.248L1046.39 99.618C1061.03 103.577 1069.31 105.557 1071.24 105.557C1071.65 105.557 1072.23 105.609 1072.96 105.713C1078.27 105.713 1081.5 104.775 1082.65 102.9C1082.33 101.702 1080.35 99.9305 1076.71 97.5862C1071.18 94.2521 1064.88 90.8659 1057.8 87.4275C1054.77 85.7605 1051.65 83.5724 1048.42 80.8635C1042.17 74.9766 1039.04 68.9856 1039.04 62.8904V60.3898C1039.04 52.6275 1042.48 46.0114 1049.36 40.5413C1055.24 36.4778 1061.86 34.4461 1069.21 34.4461Z" fill="white"/>
</svg>
